<?xml version="1.0" standalone="no"?><!DOCTYPE svg PUBLIC "-//W3C//DTD SVG 1.1//EN" "http://www.w3.org/Graphics/SVG/1.1/DTD/svg11.dtd"><svg width="200" height="200" viewBox="0 0 200 200" version="1.1" xmlns="http://www.w3.org/2000/svg" xmlns:xlink="http://www.w3.org/1999/xlink"><defs><style type="text/css"><![CDATA[
@font-face { font-family: ifont; src: url("http://at.alicdn.com/t/font_1442373896_4754455.eot?#iefix") format("embedded-opentype"), url("http://at.alicdn.com/t/font_1442373896_4754455.woff") format("woff"), url("http://at.alicdn.com/t/font_1442373896_4754455.ttf") format("truetype"), url("http://at.alicdn.com/t/font_1442373896_4754455.svg#ifont") format("svg"); }

]]></style></defs><g class="transform-group"><g transform="scale(0.1953125, 0.1953125)"><path d="M514.444 702.726l-417.713-417.678c-3.343-3.362-7.807-5.205-12.559-5.205-4.772 0-9.234 1.843-12.613 5.205-3.325 3.343-5.169 7.825-5.169 12.577s1.843 9.216 5.205 12.559l430.291 430.291c3.343 3.362 7.807 5.205 12.559 5.205 4.772 0 9.234-1.843 12.613-5.205l430.237-430.291c6.341-6.289 6.325-18.813 0.018-25.136-3.362-3.362-7.826-5.205-12.577-5.205-4.772 0-9.234 1.843-12.613 5.205l-417.678 417.678z" fill="#272636"></path></g></g></svg>