<?xml version="1.0" standalone="no"?><!DOCTYPE svg PUBLIC "-//W3C//DTD SVG 1.1//EN" "http://www.w3.org/Graphics/SVG/1.1/DTD/svg11.dtd"><svg width="200" height="200" viewBox="0 0 200 200" version="1.1" xmlns="http://www.w3.org/2000/svg" xmlns:xlink="http://www.w3.org/1999/xlink"><defs><style type="text/css"><![CDATA[
@font-face { font-family: ifont; src: url("http://at.alicdn.com/t/font_1442373896_4754455.eot?#iefix") format("embedded-opentype"), url("http://at.alicdn.com/t/font_1442373896_4754455.woff") format("woff"), url("http://at.alicdn.com/t/font_1442373896_4754455.ttf") format("truetype"), url("http://at.alicdn.com/t/font_1442373896_4754455.svg#ifont") format("svg"); }

]]></style></defs><g class="transform-group"><g transform="scale(0.1953125, 0.1953125)"><path d="M959.429379 512l-372.841613-335.557452 0 223.704968L251.030313 400.147516l0 223.704968 335.557452 0 0 260.989129L959.429379 512zM139.177829 698.420807c0 0 0-276.816606 0-372.841613 0-46.802956 9.69378-74.568323 74.568323-74.568323 50.602492 0 223.704968 0 223.704968 0L437.45112 139.158387c0 0-149.688207 0-263.942391 0-114.245997 0-108.899222 111.852484-108.899222 111.852484s0 421.549965 0 521.978259c0 76.734662 41.832757 111.852484 108.899222 111.852484 52.987818 0 263.942391 0 263.942391 0L437.45112 772.989129c0 0-126.285195 0-223.704968 0C144.490835 772.989129 139.177829 698.420807 139.177829 698.420807z" fill="#272636"></path></g></g></svg>