<?xml version="1.0" encoding="utf-8"?>
<!-- Generator: Adobe Illustrator 16.0.4, SVG Export Plug-In . SVG Version: 6.00 Build 0)  -->
<!DOCTYPE svg PUBLIC "-//W3C//DTD SVG 1.1//EN" "http://www.w3.org/Graphics/SVG/1.1/DTD/svg11.dtd">
<svg version="1.1" id="Layer_1" xmlns="http://www.w3.org/2000/svg" xmlns:xlink="http://www.w3.org/1999/xlink" x="0px" y="0px"
	 width="512px" height="512px" viewBox="0 0 512 512" enable-background="new 0 0 512 512" xml:space="preserve">
<g>
	<g transform="scale(0.1953125, 0.1953125)">
		<path fill="#272636" d="M2076.23,1223.276H595.829v185.033H2076.23V1223.276z M2076.23,668.097H595.829V853.16H2076.23V668.097z
			 M2261.296,20.43H410.774c-102.2,0-185.048,82.835-185.048,185.055v2220.606c0,102.19,82.848,185.065,185.048,185.065h1850.522
			c102.195,0,185.045-82.875,185.045-185.065V205.486C2446.341,103.265,2363.491,20.43,2261.296,20.43z M2261.296,2426.106H410.774
			V205.501h1850.522V2426.106z M2099.205,1778.39H600.949v185.07h1498.256V1778.39z"/>
	</g>
</g>
</svg>
