<?xml version="1.0" encoding="utf-8"?>
<!-- Generated by IcoMoon.io -->
<!DOCTYPE svg PUBLIC "-//W3C//DTD SVG 1.1//EN" "http://www.w3.org/Graphics/SVG/1.1/DTD/svg11.dtd">
<svg version="1.1" xmlns="http://www.w3.org/2000/svg" xmlns:xlink="http://www.w3.org/1999/xlink" width="1024" height="1024" viewBox="0 0 1024 1024">
<g id="icomoon-ignore">
</g>
<path fill="#000" d="M946.226 483.564l-241.262-361.672c-13.172-16.462-90.368-0.94-49.272 53.328 42.982 56.732 166.414 235.344 215.706 306.904h-551.242c-16.638 0-30.102 13.462-30.102 30.102 0 16.638 13.464 30.1 30.102 30.1h552.028c-56.070 84.692-211.774 319.67-220.898 331.128-11.14 13.996 5.232 71.378 53.68 34.63l241.262-361.642c17.342-17.372 17.342-45.534-0.002-62.878zM109.438 933.662c-0.236-18.962-0.088-822.354 0-842.872 0.088-20.52 30.102-30.102 30.102-30.102h331.128v-60.206h-309.842c-78.668-4.852-110.592 29.25-111.592 113.914v795.66c0 74.73 29.63 113.914 111.59 113.914h309.844v-60.208h-331.126c0 0-29.868-11.138-30.104-30.1z"></path>
</svg>
