<?xml version="1.0" encoding="utf-8"?>
<!-- Generator: Adobe Illustrator 17.0.0, SVG Export Plug-In . SVG Version: 6.00 Build 0)  -->
<!DOCTYPE svg PUBLIC "-//W3C//DTD SVG 1.1//EN" "http://www.w3.org/Graphics/SVG/1.1/DTD/svg11.dtd">
<svg version="1.1" id="椭圆_1_1_" xmlns="http://www.w3.org/2000/svg" xmlns:xlink="http://www.w3.org/1999/xlink" x="0px"
	 y="0px" width="512px" height="512px" viewBox="0 0 512 512" enable-background="new 0 0 512 512" xml:space="preserve">
<g id="椭圆_1">
	<g>
		<path fill="#42C583" d="M256,511c-68.113,0-132.149-26.524-180.312-74.688C27.524,388.148,1,324.112,1,256
			S27.524,123.851,75.688,75.688C123.851,27.524,187.887,1,256,1c68.113,0,132.149,26.524,180.313,74.688
			C484.476,123.851,511,187.887,511,256s-26.524,132.149-74.688,180.313C388.149,484.476,324.113,511,256,511z"/>
	</g>
	<g>
		<path fill="#3DB77A" d="M256,2c34.291,0,67.554,6.715,98.867,19.96c30.246,12.793,57.41,31.107,80.737,54.435
			c23.328,23.328,41.642,50.492,54.435,80.737C503.285,188.445,510,221.709,510,256c0,34.291-6.715,67.555-19.96,98.868
			c-12.793,30.246-31.108,57.41-54.435,80.738c-23.328,23.328-50.492,41.642-80.737,54.435C323.555,503.285,290.291,510,256,510
			c-34.291,0-67.555-6.715-98.868-19.96c-30.246-12.793-57.41-31.108-80.738-54.435c-23.328-23.328-41.642-50.492-54.435-80.738
			C8.715,323.554,2,290.29,2,256c0-34.291,6.715-67.554,19.96-98.867c12.793-30.246,31.108-57.41,54.435-80.737
			s50.492-41.642,80.738-54.435C188.446,8.715,221.71,2,256,2 M256,0C114.615,0,0,114.615,0,256c0,141.385,114.615,256,256,256
			c141.384,0,256-114.615,256-256C512,114.615,397.384,0,256,0L256,0z"/>
	</g>
</g>
<g>
	<path fill-rule="evenodd" clip-rule="evenodd" fill="#FFFFFF" d="M350.596,211.883H164.315c-3.122,0-5.921-1.924-7.038-4.839
		c-1.118-2.915-0.323-6.217,1.998-8.305c29.6-26.614,22.568-60.259,22.493-60.595c-0.899-4.065,1.667-8.089,5.732-8.988
		c4.066-0.901,8.089,1.667,8.989,5.732c0.098,0.444,2.38,11.042,0.136,25.5c-1.54,9.924-5.506,23.256-15.266,36.418h152.193
		c-9.76-13.163-13.726-26.494-15.266-36.418c-2.243-14.459,0.038-25.056,0.137-25.5l14.721,3.256l0.007-0.031
		c-0.018,0.086-1.809,8.76,0.13,20.564c2.553,15.54,10.075,29.019,22.357,40.062c2.321,2.087,3.116,5.39,1.998,8.305
		C356.516,209.959,353.718,211.883,350.596,211.883L350.596,211.883z"/>
	<path fill-rule="evenodd" clip-rule="evenodd" fill="#FFFFFF" d="M360.532,290.586H154.379c-3.148,0-5.965-1.957-7.064-4.907
		c-1.099-2.95-0.249-6.272,2.132-8.332c13.687-11.841,22.065-26.279,24.9-42.913c2.148-12.603,0.159-21.861,0.139-21.953
		l0.007,0.031l14.693-3.378c0.108,0.471,2.625,11.718,0.149,27.077c-1.447,8.972-4.297,17.59-8.471,25.615
		c-2.488,4.783-5.448,9.353-8.857,13.683h170.899c-3.41-4.33-6.37-8.9-8.857-13.683c-4.175-8.025-7.025-16.643-8.471-25.615
		c-2.477-15.359,0.04-26.606,0.148-27.077l14.693,3.378l0.007-0.031c-0.02,0.092-2.009,9.35,0.139,21.953
		c2.835,16.634,11.213,31.071,24.9,42.913c2.381,2.06,3.231,5.382,2.132,8.332C366.497,288.629,363.68,290.586,360.532,290.586
		L360.532,290.586z"/>
	<path fill-rule="evenodd" clip-rule="evenodd" fill="#FFFFFF" d="M320.254,160.784H194.656c-4.163,0-7.538-3.375-7.538-7.538
		c0-4.163,3.375-7.538,7.538-7.538h125.598c4.163,0,7.538,3.375,7.538,7.538C327.792,157.409,324.417,160.784,320.254,160.784
		L320.254,160.784z"/>
	<path fill-rule="evenodd" clip-rule="evenodd" fill="#FFFFFF" d="M331.324,243.126H183.586c-4.163,0-7.538-3.375-7.538-7.538
		c0-4.163,3.375-7.538,7.538-7.538h147.739c4.163,0,7.538,3.375,7.538,7.538C338.863,239.751,335.488,243.126,331.324,243.126
		L331.324,243.126z"/>
	<path fill-rule="evenodd" clip-rule="evenodd" fill="#FFFFFF" d="M207.302,357.814h-63.602c-2.673,0-5.145-1.415-6.499-3.719
		c-1.354-2.304-1.387-5.153-0.086-7.487l36.649-65.794c2.026-3.638,6.617-4.943,10.254-2.917c3.637,2.026,4.943,6.617,2.917,10.254
		l-30.407,54.588h50.775c4.163,0,7.538,3.375,7.538,7.538C214.84,354.439,211.465,357.814,207.302,357.814L207.302,357.814z"/>
	<path fill-rule="evenodd" clip-rule="evenodd" fill="#FFFFFF" d="M371.211,357.814H244.005c-4.163,0-7.538-3.375-7.538-7.538
		c0-4.163,3.375-7.538,7.538-7.538h114.378l-30.406-54.588c-2.026-3.637-0.72-8.228,2.917-10.254
		c3.636-2.025,8.228-0.72,10.253,2.917l36.648,65.794c1.301,2.335,1.268,5.183-0.086,7.487
		C376.356,356.399,373.883,357.814,371.211,357.814L371.211,357.814z"/>
	<path fill-rule="evenodd" clip-rule="evenodd" fill="#FFFFFF" d="M270.905,357.375c-4.163,0-7.538-3.375-7.538-7.538V332.68
		c0-4.208-2.707-7.763-5.912-7.763c-3.205,0-5.913,3.555-5.913,7.763v17.157c0,4.163-3.375,7.538-7.538,7.538
		c-4.163,0-7.538-3.375-7.538-7.538V332.68c0-12.593,9.415-22.839,20.989-22.839c11.573,0,20.988,10.246,20.988,22.839v17.157
		C278.443,354,275.068,357.375,270.905,357.375L270.905,357.375z"/>
</g>
</svg>
