<?xml version="1.0" encoding="utf-8"?>
<!-- Generator: Adobe Illustrator 17.0.0, SVG Export Plug-In . SVG Version: 6.00 Build 0)  -->
<!DOCTYPE svg PUBLIC "-//W3C//DTD SVG 1.1//EN" "http://www.w3.org/Graphics/SVG/1.1/DTD/svg11.dtd">
<svg version="1.1" id="椭圆_1_1_" xmlns="http://www.w3.org/2000/svg" xmlns:xlink="http://www.w3.org/1999/xlink" x="0px"
	 y="0px" width="512px" height="512px" viewBox="0 0 512 512" enable-background="new 0 0 512 512" xml:space="preserve">
<g id="椭圆_1">
	<g>
		<path fill="#F75A53" d="M256,511c-68.113,0-132.149-26.524-180.312-74.688C27.524,388.148,1,324.112,1,256
			S27.524,123.851,75.688,75.688C123.851,27.524,187.887,1,256,1c68.113,0,132.149,26.524,180.313,74.688
			C484.476,123.851,511,187.887,511,256s-26.524,132.149-74.688,180.313C388.149,484.476,324.113,511,256,511z"/>
	</g>
	<g>
		<path fill="#EF4942" d="M256,2c34.291,0,67.554,6.715,98.867,19.96c30.246,12.793,57.41,31.107,80.737,54.435
			c23.328,23.328,41.642,50.492,54.435,80.737C503.285,188.445,510,221.709,510,256c0,34.291-6.715,67.555-19.96,98.868
			c-12.793,30.246-31.108,57.41-54.435,80.738c-23.328,23.328-50.492,41.642-80.737,54.435C323.555,503.285,290.291,510,256,510
			c-34.291,0-67.555-6.715-98.868-19.96c-30.246-12.793-57.41-31.108-80.738-54.435c-23.328-23.328-41.642-50.492-54.435-80.738
			C8.715,323.554,2,290.29,2,256c0-34.291,6.715-67.554,19.96-98.867c12.793-30.246,31.108-57.41,54.435-80.737
			s50.492-41.642,80.738-54.435C188.446,8.715,221.71,2,256,2 M256,0C114.615,0,0,114.615,0,256c0,141.385,114.615,256,256,256
			c141.384,0,256-114.615,256-256C512,114.615,397.384,0,256,0L256,0z"/>
	</g>
</g>
<g>
	<path fill-rule="evenodd" clip-rule="evenodd" fill="#FFFFFF" stroke="#EF4942" stroke-miterlimit="10" d="M383.171,359.543
		V231.957c0-16.233-13.21-29.443-29.443-29.443h-49.071v-68.7c0-16.233-13.21-29.443-29.443-29.443h-98.143
		c-16.233,0-29.443,13.21-29.443,29.443v225.729H128v19.629h235.543h19.629H402.8v-19.629H383.171L383.171,359.543z
		 M167.257,359.543V133.814c0-5.398,4.397-9.814,9.814-9.814h98.143c5.398,0,9.814,4.416,9.814,9.814v225.729H167.257
		L167.257,359.543z M304.657,359.543v-137.4h49.071c5.398,0,9.814,4.416,9.814,9.814v127.586H304.657L304.657,359.543z"/>
	<polygon fill-rule="evenodd" clip-rule="evenodd" fill="#FFFFFF" stroke="#EF4942" stroke-miterlimit="10" points="196.7,163.257 
		216.329,163.257 216.329,182.886 196.7,182.886 196.7,163.257 	"/>
	<polygon fill-rule="evenodd" clip-rule="evenodd" fill="#FFFFFF" stroke="#EF4942" stroke-miterlimit="10" points="
		235.957,163.257 255.586,163.257 255.586,182.886 235.957,182.886 235.957,163.257 	"/>
	<polygon fill-rule="evenodd" clip-rule="evenodd" fill="#FFFFFF" stroke="#EF4942" stroke-miterlimit="10" points="196.7,202.514 
		216.329,202.514 216.329,222.143 196.7,222.143 196.7,202.514 	"/>
	<polygon fill-rule="evenodd" clip-rule="evenodd" fill="#FFFFFF" stroke="#EF4942" stroke-miterlimit="10" points="
		235.957,202.514 255.586,202.514 255.586,222.143 235.957,222.143 235.957,202.514 	"/>
	<polygon fill-rule="evenodd" clip-rule="evenodd" fill="#FFFFFF" stroke="#EF4942" stroke-miterlimit="10" points="196.7,241.771 
		216.329,241.771 216.329,261.4 196.7,261.4 196.7,241.771 	"/>
	<polygon fill-rule="evenodd" clip-rule="evenodd" fill="#FFFFFF" stroke="#EF4942" stroke-miterlimit="10" points="
		235.957,241.771 255.586,241.771 255.586,261.4 235.957,261.4 235.957,241.771 	"/>
</g>
</svg>
