<?xml version="1.0" encoding="utf-8"?>
<!-- Generator: Adobe Illustrator 17.0.0, SVG Export Plug-In . SVG Version: 6.00 Build 0)  -->
<!DOCTYPE svg PUBLIC "-//W3C//DTD SVG 1.1//EN" "http://www.w3.org/Graphics/SVG/1.1/DTD/svg11.dtd">
<svg version="1.1" id="椭圆_1_1_" xmlns="http://www.w3.org/2000/svg" xmlns:xlink="http://www.w3.org/1999/xlink" x="0px"
	 y="0px" width="512px" height="512px" viewBox="0 0 512 512" enable-background="new 0 0 512 512" xml:space="preserve">
<g id="椭圆_1">
	<g>
		<path fill="#A5CC2D" d="M256,511c-68.113,0-132.149-26.524-180.312-74.688C27.524,388.148,1,324.112,1,256
			S27.524,123.851,75.688,75.688C123.851,27.524,187.887,1,256,1c68.113,0,132.149,26.524,180.313,74.688
			C484.476,123.851,511,187.887,511,256s-26.524,132.149-74.688,180.313C388.149,484.476,324.113,511,256,511z"/>
	</g>
	<g>
		<path fill="#8ABE0A" d="M256,2c34.291,0,67.554,6.715,98.867,19.96c30.246,12.793,57.41,31.107,80.737,54.435
			c23.328,23.328,41.642,50.492,54.435,80.737C503.285,188.445,510,221.709,510,256c0,34.291-6.715,67.555-19.96,98.868
			c-12.793,30.246-31.108,57.41-54.435,80.738c-23.328,23.328-50.492,41.642-80.737,54.435C323.555,503.285,290.291,510,256,510
			c-34.291,0-67.555-6.715-98.868-19.96c-30.246-12.793-57.41-31.108-80.738-54.435c-23.328-23.328-41.642-50.492-54.435-80.738
			C8.715,323.554,2,290.29,2,256c0-34.291,6.715-67.554,19.96-98.867c12.793-30.246,31.108-57.41,54.435-80.737
			s50.492-41.642,80.738-54.435C188.446,8.715,221.71,2,256,2 M256,0C114.615,0,0,114.615,0,256c0,141.385,114.615,256,256,256
			c141.384,0,256-114.615,256-256C512,114.615,397.384,0,256,0L256,0z"/>
	</g>
</g>
<g>
	<path fill-rule="evenodd" clip-rule="evenodd" fill="#FFFFFF" stroke="#8ABE0A" stroke-miterlimit="100" d="M347.707,351.741
		c7.567-32.226,12.618-65.621,18.701-98.154c0.455-3.557,1.557-6.715,3.88-9.529c2.945-3.566,6.885-5.414,11.228-5.946
		c2.091-0.267,1.884-1.855,1.884-4.09v-15.288c0-2.828-0.274-2.874-3.126-2.875c-3.992-0.001-7.982-0.019-11.975-0.019
		c-12.393,0-24.786,0-37.18,0c-24.787,0-49.574,0-74.36,0c-24.894,0-49.789,0-74.684,0c-12.393,0-24.787,0-37.18,0l-11.436,0.018
		c-4.108,0.005-3.665,1.416-3.665,4.808v13.919c0,3.74,0.242,3.303,3.394,3.374h7.222c4.481-0.024,4.11,0.572,5.076,5.535
		l7.342,37.668c2.112,10.566,3.915,21.191,6.028,31.758c2.107,10.535,4.089,21.095,6.197,31.63c0.472,2.357,1.396,8.877,2.51,12.387
		c58.19,0,116.379,0,174.569,0C346.972,356.935,346.723,355.929,347.707,351.741L347.707,351.741L347.707,351.741z M132.608,252.278
		h-7.436c-4.38,0-9.699-4.049-9.699-7.76v-35.24c0-4.445,5.668-7.8,10.667-7.762c6.244,0.049,12.508,0.002,18.754,0.002
		c12.393,0,24.787,0,37.18,0c24.895,0,49.789,0,74.684,0c24.787,0,49.573,0,74.361,0c12.394,0,24.787,0,37.18,0
		c6.247,0,12.51,0.046,18.754-0.002c5.351-0.042,10.668,3.643,10.668,8.085v34.271c0,6.212-6.339,8.511-13.265,8.397
		c-4.527-0.075-3.443,2.232-4.329,6.664l-16.061,82.224c-1.911,9.718-3.291,30.098-13.872,30.098h-185.58
		c-10.755,0-11.731-14.525-13.606-23.898c-2.114-10.57-4.074-21.023-6.197-31.631c-2.043-10.217-3.962-21.429-6.035-31.792
		L132.608,252.278L132.608,252.278z"/>
	<path fill-rule="evenodd" clip-rule="evenodd" fill="#FFFFFF" stroke="#8ABE0A" stroke-miterlimit="100" d="M254.172,131.684h7.436
		c19.895,0,43.577,11.364,54.232,20.776c7.683,6.788,11.887,11.065,18.097,19.406c3.224,4.329,11.866,19.297,12.377,25.45h-15.841
		c-2.863-12.287-17.229-28.09-26.23-34.875c-10.365-7.814-27.511-15.884-45.545-15.884h-2.91c-19.163,0-35.15,7.333-46.282,15.47
		c-9.26,6.769-23.878,22.81-26.785,35.289h-15.842c0.527-6.339,9.212-21.187,12.517-25.633c5.752-7.737,10.995-13.706,18.478-19.672
		C210.779,141.72,231.076,131.684,254.172,131.684L254.172,131.684z"/>
	<path fill-rule="evenodd" clip-rule="evenodd" fill="#FFFFFF" stroke="#8ABE0A" stroke-miterlimit="100" d="M207.454,244.186
		L207.454,244.186c5.424,0,9.86,3.97,9.86,8.821v82.259c0,4.851-4.437,8.821-9.86,8.821l0,0c-5.424,0-9.861-3.969-9.861-8.821
		v-82.259C197.593,248.155,202.03,244.186,207.454,244.186L207.454,244.186z"/>
	<path fill-rule="evenodd" clip-rule="evenodd" fill="#FFFFFF" stroke="#8ABE0A" stroke-miterlimit="100" d="M256.579,244.186
		L256.579,244.186c5.424,0,9.861,3.97,9.861,8.821v82.259c0,4.851-4.438,8.821-9.861,8.821l0,0c-5.424,0-9.861-3.969-9.861-8.821
		v-82.259C246.718,248.155,251.156,244.186,256.579,244.186L256.579,244.186z"/>
	<path fill-rule="evenodd" clip-rule="evenodd" fill="#FFFFFF" stroke="#8ABE0A" stroke-miterlimit="100" d="M305.705,244.186
		L305.705,244.186c5.425,0,9.86,3.97,9.86,8.821v82.259c0,4.851-4.437,8.821-9.86,8.821l0,0c-5.424,0-9.86-3.969-9.86-8.821v-82.259
		C295.844,248.155,300.281,244.186,305.705,244.186L305.705,244.186z"/>
</g>
</svg>
