<?xml version="1.0" encoding="utf-8"?>
<!-- Generator: Adobe Illustrator 17.0.0, SVG Export Plug-In . SVG Version: 6.00 Build 0)  -->
<!DOCTYPE svg PUBLIC "-//W3C//DTD SVG 1.1//EN" "http://www.w3.org/Graphics/SVG/1.1/DTD/svg11.dtd">
<svg version="1.1" id="椭圆_1_1_" xmlns="http://www.w3.org/2000/svg" xmlns:xlink="http://www.w3.org/1999/xlink" x="0px"
	 y="0px" width="512px" height="512px" viewBox="0 0 512 512" enable-background="new 0 0 512 512" xml:space="preserve">
<g id="椭圆_1">
	<g>
		<path fill="#FC8B11" d="M256,511c-68.113,0-132.149-26.524-180.312-74.688C27.524,388.148,1,324.112,1,256
			S27.524,123.851,75.688,75.688C123.851,27.524,187.887,1,256,1c68.113,0,132.149,26.524,180.313,74.688
			C484.476,123.851,511,187.887,511,256s-26.524,132.149-74.688,180.313C388.149,484.476,324.113,511,256,511z"/>
	</g>
	<g>
		<path fill="#EE7C01" d="M256,2c34.291,0,67.554,6.715,98.867,19.96c30.246,12.793,57.41,31.107,80.737,54.435
			c23.328,23.328,41.642,50.492,54.435,80.737C503.285,188.445,510,221.709,510,256c0,34.291-6.715,67.555-19.96,98.868
			c-12.793,30.246-31.108,57.41-54.435,80.738c-23.328,23.328-50.492,41.642-80.737,54.435C323.555,503.285,290.291,510,256,510
			c-34.291,0-67.555-6.715-98.868-19.96c-30.246-12.793-57.41-31.108-80.738-54.435c-23.328-23.328-41.642-50.492-54.435-80.738
			C8.715,323.554,2,290.29,2,256c0-34.291,6.715-67.554,19.96-98.867c12.793-30.246,31.108-57.41,54.435-80.737
			s50.492-41.642,80.738-54.435C188.446,8.715,221.71,2,256,2 M256,0C114.615,0,0,114.615,0,256c0,141.385,114.615,256,256,256
			c141.384,0,256-114.615,256-256C512,114.615,397.384,0,256,0L256,0z"/>
	</g>
</g>
<g>
	<path fill-rule="evenodd" clip-rule="evenodd" fill="#FFFFFF" stroke="#EE7C01" stroke-miterlimit="10" d="M298.908,336.476H213.09
		c-5.003,0-9.074,4.071-9.074,9.074s4.071,9.074,9.074,9.074h85.819c5.003,0,9.074-4.071,9.074-9.074
		S303.912,336.476,298.908,336.476L298.908,336.476z"/>
	<path fill-rule="evenodd" clip-rule="evenodd" fill="#FFFFFF" stroke="#EE7C01" stroke-miterlimit="10" d="M376.44,213.655h-19.986
		c-6.922-20.052-20.109-37.996-37.232-50.628c-1.571-1.16-3.431-1.773-5.38-1.773c-2.873,0-5.605,1.378-7.308,3.687
		c-2.971,4.024-2.112,9.717,1.914,12.689c12.376,9.131,22.448,21.857,28.558,36.026H176.125
		c13.745-32.313,45.065-53.057,80.452-53.057c5.003,0,9.074-4.071,9.074-9.074c0-5.003-4.071-9.074-9.074-9.074
		c-22.848,0-44.598,7.179-62.898,20.762c-17.265,12.817-30.033,30.239-36.981,50.443h-21.141l-1.189,7.688
		c-0.827,5.355-1.246,10.791-1.246,16.156c0,37.227,19.829,72.11,53.044,93.311l2.234,1.425h135.2l2.234-1.425
		c33.214-21.201,53.044-56.084,53.044-93.311c0-5.369-0.42-10.805-1.248-16.157L376.44,213.655L376.44,213.655z M360.729,237.499
		c0,30.065-15.872,58.66-42.487,76.589H193.758c-26.615-17.928-42.488-46.524-42.488-76.589c0-1.882,0.063-3.792,0.189-5.697
		h209.082C360.666,233.705,360.729,235.616,360.729,237.499L360.729,237.499z"/>
	<path fill-rule="evenodd" clip-rule="evenodd" fill="#FFFFFF" stroke="#EE7C01" stroke-miterlimit="10" d="M287.715,171.792
		c7.062,0,12.806-5.745,12.806-12.806c0-7.061-5.745-12.806-12.806-12.806c-7.061,0-12.806,5.745-12.806,12.806
		C274.909,166.047,280.654,171.792,287.715,171.792L287.715,171.792z"/>
</g>
</svg>
