<?xml version="1.0" encoding="utf-8"?>
<!-- Generator: Adobe Illustrator 16.0.4, SVG Export Plug-In . SVG Version: 6.00 Build 0)  -->
<!DOCTYPE svg PUBLIC "-//W3C//DTD SVG 1.1//EN" "http://www.w3.org/Graphics/SVG/1.1/DTD/svg11.dtd">
<svg version="1.1" id="Layer_1" xmlns="http://www.w3.org/2000/svg" xmlns:xlink="http://www.w3.org/1999/xlink" x="0px" y="0px"
	 width="512px" height="512px" viewBox="0 0 512 512" enable-background="new 0 0 512 512" xml:space="preserve">
<g>
	<path fill="#272636" d="M255.723,0.723c-141.383,0-256,114.615-256,256.001c0,141.383,114.617,256,256,256
		c141.383,0,256-114.617,256-256C511.723,115.337,397.105,0.723,255.723,0.723L255.723,0.723L255.723,0.723z M255.723,482.432
		c-124.655,0-225.711-101.054-225.711-225.708c0-124.658,101.056-225.712,225.711-225.712s225.708,101.054,225.708,225.712
		C481.431,381.378,380.378,482.432,255.723,482.432L255.723,482.432L255.723,482.432z M255.723,482.432"/>
</g>
</svg>
