<?xml version="1.0" encoding="utf-8"?>
<!-- Generator: Adobe Illustrator 16.0.4, SVG Export Plug-In . SVG Version: 6.00 Build 0)  -->
<!DOCTYPE svg PUBLIC "-//W3C//DTD SVG 1.1//EN" "http://www.w3.org/Graphics/SVG/1.1/DTD/svg11.dtd">
<svg version="1.1" id="Layer_1" xmlns="http://www.w3.org/2000/svg" xmlns:xlink="http://www.w3.org/1999/xlink" x="0px" y="0px"
	 width="512px" height="512px" viewBox="0 0 512 512" enable-background="new 0 0 512 512" xml:space="preserve">
<g>
	<path fill="#272636" d="M256.035,0.264C115.17,0.264,0.831,115.131,0.831,256.266c0,141.131,114.602,255.998,255.204,255.998
		S511.24,397.396,511.24,256.266C511.506,115.131,396.9,0.264,256.035,0.264L256.035,0.264L256.035,0.264z M256.035,491.571
		C126.577,491.571,21.258,385.989,21.258,256c0-129.726,105.319-235.309,234.777-235.309c129.461,0,234.778,105.583,234.778,235.575
		C491.078,385.989,385.496,491.571,256.035,491.571L256.035,491.571L256.035,491.571L256.035,491.571z M256.035,110.624
		c-80.382,0-145.376,65.26-145.376,145.642c0,80.378,64.994,145.64,145.376,145.64s145.377-65.262,145.377-145.64
		C401.412,175.618,336.417,110.624,256.035,110.624L256.035,110.624L256.035,110.624L256.035,110.624z M256.035,110.624"/>
</g>
</svg>
