<?xml version="1.0" encoding="utf-8"?>
<!-- Generator: Adobe Illustrator 17.0.0, SVG Export Plug-In . SVG Version: 6.00 Build 0)  -->
<!DOCTYPE svg PUBLIC "-//W3C//DTD SVG 1.1//EN" "http://www.w3.org/Graphics/SVG/1.1/DTD/svg11.dtd">
<svg version="1.1" id="椭圆_1_1_" xmlns="http://www.w3.org/2000/svg" xmlns:xlink="http://www.w3.org/1999/xlink" x="0px"
	 y="0px" width="512px" height="512px" viewBox="0 0 512 512" enable-background="new 0 0 512 512" xml:space="preserve">
<g id="椭圆_1">
	<g>
		<path fill="#00ACEE" d="M256,511c-68.113,0-132.149-26.524-180.312-74.688C27.524,388.148,1,324.112,1,256
			S27.524,123.851,75.688,75.688C123.851,27.524,187.887,1,256,1c68.113,0,132.149,26.524,180.313,74.688
			C484.476,123.851,511,187.887,511,256s-26.524,132.149-74.688,180.313C388.149,484.476,324.113,511,256,511z"/>
	</g>
	<g>
		<path fill="#0298D2" d="M256,2c34.291,0,67.554,6.715,98.867,19.96c30.246,12.793,57.41,31.107,80.737,54.435
			c23.328,23.328,41.642,50.492,54.435,80.737C503.285,188.445,510,221.709,510,256c0,34.291-6.715,67.555-19.96,98.868
			c-12.793,30.246-31.108,57.41-54.435,80.738c-23.328,23.328-50.492,41.642-80.737,54.435C323.555,503.285,290.291,510,256,510
			c-34.291,0-67.555-6.715-98.868-19.96c-30.246-12.793-57.41-31.108-80.738-54.435c-23.328-23.328-41.642-50.492-54.435-80.738
			C8.715,323.554,2,290.29,2,256c0-34.291,6.715-67.554,19.96-98.867c12.793-30.246,31.108-57.41,54.435-80.737
			s50.492-41.642,80.738-54.435C188.446,8.715,221.71,2,256,2 M256,0C114.615,0,0,114.615,0,256c0,141.385,114.615,256,256,256
			c141.384,0,256-114.615,256-256C512,114.615,397.384,0,256,0L256,0z"/>
	</g>
</g>
<g>
	<path fill-rule="evenodd" clip-rule="evenodd" fill="#FFFFFF" stroke="#0298D2" stroke-miterlimit="100" d="M247.375,284.022
		l0.15,0.1l0.125,0.15c1.856,2.082,4.54,3.261,7.324,3.261c2.81,0,5.493-1.179,7.35-3.261l0.125-0.15l0.15-0.125
		c18.236-17.258,60.677-62.056,60.677-105.024c0-37.6-30.627-68.177-68.302-68.177c-37.625,0-68.302,30.577-68.302,68.177
		C186.698,221.94,229.139,266.739,247.375,284.022L247.375,284.022z M206.639,179.274c0-26.613,21.697-48.286,48.335-48.286
		c26.664,0,48.361,21.672,48.361,48.286c0,24.205-17.232,52.073-31.755,71.262c-3.462,5.845-9.783,9.457-16.605,9.457
		c-6.798,0-13.118-3.637-16.58-9.457C223.871,231.347,206.639,203.479,206.639,179.274L206.639,179.274z M385.835,183.789
		l-0.552,0.025c-1.555,0.075-3.06,0.527-4.415,1.305l-21.597,12.466c-2.282,1.33-3.913,3.436-4.59,5.97
		c-0.677,2.533-0.326,5.192,0.978,7.45c1.756,3.035,5.017,4.891,8.528,4.891c1.681,0,3.361-0.426,4.841-1.254l7.048-4.013v122.357
		l-74.899,38.277l-89.974-47.157l-0.301-0.276c-1.706-1.254-3.787-1.957-5.995-1.957h-0.276c-2.182,0-4.314,0.728-6.02,2.057
		l-0.326,0.226l-64.339,34.666V233.328l16.806-9.707c2.258-1.33,3.888-3.437,4.565-5.97c0.677-2.508,0.326-5.142-0.978-7.4
		c-1.756-3.01-5.017-4.891-8.528-4.891c-1.706,0-3.411,0.452-4.891,1.304l-21.647,12.492c-1.856,1.053-3.286,2.659-4.164,4.716
		c-0.552,1.254-0.853,2.608-0.853,3.988v147.189c0,1.204,0.201,2.408,0.678,3.562c0.15,0.427,0.326,0.828,0.527,1.179
		c1.706,3.261,5.042,5.292,8.729,5.292c1.58,0,3.11-0.376,4.465-1.079l76.253-41.086l91.931,48.185
		c1.43,0.728,2.935,1.104,4.54,1.104c2.158,0,4.29-0.728,6.02-2.057l0.351-0.251l82.65-42.24c2.358-1.204,4.114-3.311,4.891-5.97
		c0.301-0.978,0.452-1.957,0.452-2.96V193.596C395.718,188.203,391.303,183.789,385.835,183.789L385.835,183.789z"/>
</g>
</svg>
