<?xml version="1.0" encoding="utf-8"?>
<!-- Generator: Adobe Illustrator 17.0.0, SVG Export Plug-In . SVG Version: 6.00 Build 0)  -->
<!DOCTYPE svg PUBLIC "-//W3C//DTD SVG 1.1//EN" "http://www.w3.org/Graphics/SVG/1.1/DTD/svg11.dtd">
<svg version="1.1" id="椭圆_1_1_" xmlns="http://www.w3.org/2000/svg" xmlns:xlink="http://www.w3.org/1999/xlink" x="0px"
	 y="0px" width="512px" height="512px" viewBox="0 0 512 512" enable-background="new 0 0 512 512" xml:space="preserve">
<g id="椭圆_1">
	<g>
		<path fill="#6A98FF" d="M256,511c-68.113,0-132.149-26.524-180.312-74.688C27.524,388.148,1,324.112,1,256
			S27.524,123.851,75.688,75.688C123.851,27.524,187.887,1,256,1c68.113,0,132.149,26.524,180.313,74.688
			C484.476,123.851,511,187.887,511,256s-26.524,132.149-74.688,180.313C388.149,484.476,324.113,511,256,511z"/>
	</g>
	<g>
		<path fill="#5A8AF6" d="M256,2c34.291,0,67.554,6.715,98.867,19.96c30.246,12.793,57.41,31.107,80.737,54.435
			c23.328,23.328,41.642,50.492,54.435,80.737C503.285,188.445,510,221.709,510,256c0,34.291-6.715,67.555-19.96,98.868
			c-12.793,30.246-31.108,57.41-54.435,80.738c-23.328,23.328-50.492,41.642-80.737,54.435C323.555,503.285,290.291,510,256,510
			c-34.291,0-67.555-6.715-98.868-19.96c-30.246-12.793-57.41-31.108-80.738-54.435c-23.328-23.328-41.642-50.492-54.435-80.738
			C8.715,323.554,2,290.29,2,256c0-34.291,6.715-67.554,19.96-98.867c12.793-30.246,31.108-57.41,54.435-80.737
			s50.492-41.642,80.738-54.435C188.446,8.715,221.71,2,256,2 M256,0C114.615,0,0,114.615,0,256c0,141.385,114.615,256,256,256
			c141.384,0,256-114.615,256-256C512,114.615,397.384,0,256,0L256,0z"/>
	</g>
</g>
<g>
	<path fill-rule="evenodd" clip-rule="evenodd" fill="#FFFFFF" stroke="#5A8AF6" stroke-miterlimit="100" d="M139.002,301.155
		c-2.588,3.197-2.337,7.835,0.574,10.744l14.178,14.179c-1.93,6.243-3.838,16.597,0.013,27.004
		c3.683,9.966,11.551,17.538,23.378,22.515c3.89,1.642,7.921,2.345,12.065,2.345c12.373,0,25.799-6.293,39.81-12.862
		c28.581-13.403,60.969-28.597,96.422-0.802c3.505,2.744,8.569,2.129,11.314-1.368c2.742-3.497,2.131-8.574-1.372-11.32
		c-43.262-33.9-83.683-14.944-113.203-1.104c-16.031,7.509-29.879,14.003-38.779,10.255c-7.56-3.171-12.445-7.635-14.521-13.239
		c-0.928-2.52-1.241-5.09-1.228-7.521l6.305,6.305c1.561,1.568,3.627,2.357,5.699,2.357c1.783,0,3.572-0.59,5.059-1.781
		l110.577-89.199c1.677,0.113,3.353,0.251,5.061,0.251c39.932,0,72.416-32.483,72.416-72.413c0-39.925-32.483-72.408-72.416-72.408
		c-39.93,0-72.411,32.482-72.411,72.408c0,1.718,0.137,3.385,0.257,5.066L139.002,301.155L139.002,301.155 M356.653,185.503
		c0,31.043-25.255,56.303-56.3,56.303c-31.041,0-56.296-25.261-56.296-56.303c0-31.041,25.255-56.293,56.296-56.293
		C331.397,129.21,356.653,154.462,356.653,185.503L356.653,185.503 M180.232,329.776l-10.205-10.204
		c-0.623-1.004-1.476-1.855-2.519-2.521L156.09,305.63l76.499-94.827c7.338,19.582,22.886,35.128,42.474,42.475L180.232,329.776
		L180.232,329.776 M228.765,246.683l-17.457,17.464c-3.151,3.146-3.151,8.248,0,11.394c1.573,1.569,3.635,2.357,5.694,2.357
		c2.062,0,4.125-0.789,5.698-2.357l17.461-17.463c3.147-3.146,3.147-8.249,0-11.396
		C237.015,243.536,231.915,243.536,228.765,246.683L228.765,246.683 M228.765,246.683L228.765,246.683z"/>
</g>
</svg>
