<?xml version="1.0" standalone="no"?><!DOCTYPE svg PUBLIC "-//W3C//DTD SVG 1.1//EN" "http://www.w3.org/Graphics/SVG/1.1/DTD/svg11.dtd"><svg width="200" height="200" viewBox="0 0 200 200" version="1.1" xmlns="http://www.w3.org/2000/svg" xmlns:xlink="http://www.w3.org/1999/xlink"><defs><style type="text/css"><![CDATA[
@font-face { font-family: ifont; src: url("http://at.alicdn.com/t/font_1442373896_4754455.eot?#iefix") format("embedded-opentype"), url("http://at.alicdn.com/t/font_1442373896_4754455.woff") format("woff"), url("http://at.alicdn.com/t/font_1442373896_4754455.ttf") format("truetype"), url("http://at.alicdn.com/t/font_1442373896_4754455.svg#ifont") format("svg"); }

]]></style></defs><g class="transform-group"><g transform="scale(0.1953125, 0.1953125)"><path d="M886.59584 423.53792 648.01152 423.53792C740.45184 82.08512 584.30464 64.64 584.30464 64.64c-66.2016 0-52.4608 52.34048-57.4592 61.06112 0 166.98624-177.37216 297.8368-177.37216 297.8368l0 473.54752c0 46.72768 63.70048 63.55456 88.6848 63.55456l358.5024 0c33.728 0 61.20576-88.48256 61.20576-88.48256C946.56 570.58816 946.56 480.86528 946.56 480.86528 946.56 418.55744 886.59584 423.53792 886.59584 423.53792L886.59584 423.53792zM886.59584 423.53792M251.56736 423.6928 108.69888 423.6928c-29.51296 0-29.97888 28.97664-29.97888 28.97664l29.51296 477.59232c0 30.37824 30.4448 30.37824 30.4448 30.37824l123.66336 0c25.76256 0 25.5296-20.09472 25.5296-20.09472L287.87072 459.90912C287.87072 423.22688 251.56736 423.6928 251.56736 423.6928L251.56736 423.6928zM251.56736 423.6928" fill="#272636"></path></g></g></svg>